<?xml version="1.0" standalone="no"?>
<!DOCTYPE svg PUBLIC "-//W3C//DTD SVG 1.0//EN" "http://www.w3.org/TR/2001/REC-SVG-20010904/DTD/svg10.dtd">
<svg xmlns="http://www.w3.org/2000/svg" xmlns:xlink="http://www.w3.org/1999/xlink" id="body_1" width="194" height="194">

<g transform="matrix(1 0 0 1 0 0)">
    <path d="M194 97C 194.00002 123.78581 184.5298 146.64893 165.58936 165.58936C 146.64893 184.5298 123.78581 194.00002 97 194C 70.214195 194.00002 47.351074 184.5298 28.410645 165.58936C 9.470215 146.64893 0 123.78581 0 97C 0 70.214195 9.470215 47.351074 28.410645 28.410645C 47.351074 9.470215 70.214195 0 97 0C 123.78581 0 146.64893 9.470215 165.58936 28.410645C 184.5298 47.351074 194.00002 70.214195 194 97C 194.00002 98.12876 193.98032 99.25718 193.94092 100.385254" stroke="none" fill="#000000" fill-rule="nonzero" />
    <path d="M94 9.2C 73.70017 9.901413 54.268005 17.603622 39 31L39 31L66 31L94 16.6L94 9.200001L94 9.2zM100 9.2L100 16.6L128 31L155 31C 139.732 17.603622 120.29983 9.901413 100 9.200001zM32.800003 37C 23.620445 46.73157 16.780434 58.427998 12.800003 71.2L12.800003 71.2L28.800003 98.799995L51.800003 95.2L72.8 58.999996L64.4 36.999996L32.800003 36.999996zM129.6 37L121.200005 59L142.20001 95.2L165.20001 98.799995L181.00002 71.399994C 177.1058 58.575108 170.33357 46.809193 161.20001 36.999992L161.20001 36.999992L129.6 36.999992zM79.600006 63L59.400005 98.2L77.200005 129L116.8 129L134.6 98.2L114.40001 62.999996L79.600006 62.999996zM10.800003 79.6C 9.623589 85.32586 9.020615 91.15459 9.000003 97C 9.016418 111.44438 12.588165 125.662674 19.400002 138.4L19.400002 138.4L26.800001 134L25.400002 105L10.800001 79.6zM183.2 79.799995L168.59999 105L167.2 134L174.59999 138.4C 181.41183 125.662674 184.98358 111.44438 184.99998 96.99999C 184.96616 91.2215 184.36325 85.4603 183.19998 79.79999zM77.2 137L61.799995 156L77.2 182.6C 83.68774 184.14777 90.33036 184.95294 97 185C 103.66964 184.95294 110.31226 184.14777 116.8 182.6L116.8 182.6L132.2 156L116.799995 137L77.2 137zM29.399998 139.6L22.399998 143.6C 33.15065 160.8589 49.546295 173.86234 68.8 180.4L68.8 180.4L54.800003 155.79999L29.400003 139.59999zM164.59999 139.6L139.2 155.8L125.2 180.2C 144.42325 173.71344 160.81476 160.78394 171.6 143.6L171.6 143.6L164.6 139.6z" stroke="none" fill="#FFFFFF" fill-rule="nonzero" />
</g>
</svg>